<?xml version="1.0" encoding="utf-8"?>
<!-- Uploaded to: SVG Repo, www.svgrepo.com, Generator: SVG Repo Mixer Tools -->
<svg fill="#000000" width="800px" height="800px" viewBox="-4 0 32 32" version="1.1" xmlns="http://www.w3.org/2000/svg">
<title>clear</title>
<path d="M13.688 9.219v-3.969c0-0.719-0.531-1.25-1.219-1.25h-0.938c-0.688 0-1.219 0.531-1.219 1.25v3.969c0 0.688 0.531 1.25 1.219 1.25h0.938c0.688 0 1.219-0.563 1.219-1.25zM8.406 9.969l-2.813-2.781c-0.469-0.469-1.281-0.469-1.75 0l-0.656 0.656c-0.469 0.469-0.469 1.281 0 1.75l2.781 2.813c0.469 0.469 1.313 0.469 1.781 0l0.656-0.656c0.469-0.469 0.469-1.313 0-1.781zM18.031 12.406l2.781-2.813c0.469-0.469 0.469-1.281 0-1.75l-0.656-0.656c-0.469-0.469-1.281-0.469-1.75 0l-2.813 2.781c-0.469 0.469-0.469 1.313 0 1.781l0.656 0.656c0.469 0.469 1.313 0.469 1.781 0zM1.25 17.688h3.969c0.688 0 1.25-0.531 1.25-1.219v-0.969c0-0.688-0.563-1.188-1.25-1.188h-3.969c-0.719 0-1.25 0.5-1.25 1.188v0.969c0 0.688 0.531 1.219 1.25 1.219zM18.781 17.688h3.969c0.719 0 1.25-0.531 1.25-1.219v-0.969c0-0.688-0.531-1.188-1.25-1.188h-3.969c-0.688 0-1.25 0.5-1.25 1.188v0.969c0 0.688 0.563 1.219 1.25 1.219zM5.594 24.781l2.813-2.781c0.469-0.469 0.469-1.281 0-1.75l-0.656-0.688c-0.469-0.469-1.313-0.469-1.781 0l-2.781 2.844c-0.469 0.469-0.469 1.281 0 1.75l0.656 0.625c0.469 0.469 1.281 0.469 1.75 0zM20.813 22.406l-2.781-2.844c-0.469-0.469-1.313-0.469-1.781 0l-0.656 0.688c-0.469 0.469-0.469 1.281 0 1.75l2.813 2.781c0.469 0.469 1.281 0.469 1.75 0l0.656-0.625c0.469-0.469 0.469-1.281 0-1.75zM13.688 26.75v-3.969c0-0.688-0.531-1.25-1.219-1.25h-0.938c-0.688 0-1.219 0.563-1.219 1.25v3.969c0 0.719 0.531 1.25 1.219 1.25h0.938c0.688 0 1.219-0.531 1.219-1.25z"></path>
</svg>