<svg width="0" height="0" class="hidden">
  <symbol xmlns="http://www.w3.org/2000/svg" viewBox="0 0 24 24" id="line">
    <path d="M23 13H1v-2h22z"></path>
    <path fill="none" d="M0 0h24v24H0z"></path>
  </symbol>
  <symbol xmlns="http://www.w3.org/2000/svg" viewBox="0 0 384 512" id="lines">
    <path d="M190.4 74.1c5.6-16.8-3.5-34.9-20.2-40.5s-34.9 3.5-40.5 20.2l-128 384c-5.6 16.8 3.5 34.9 20.2 40.5s34.9-3.5 40.5-20.2l128-384zm70.9-41.7c-17.4-2.9-33.9 8.9-36.8 26.3l-64 384c-2.9 17.4 8.9 33.9 26.3 36.8s33.9-8.9 36.8-26.3l64-384c2.9-17.4-8.9-33.9-26.3-36.8zM352 32c-17.7 0-32 14.3-32 32V448c0 17.7 14.3 32 32 32s32-14.3 32-32V64c0-17.7-14.3-32-32-32z"></path>
  </symbol>
  <symbol fill="none" xmlns="http://www.w3.org/2000/svg" viewBox="0 0 24 24" id="menu">
    <path d="M3 7H21" stroke="#292D32" stroke-width="1.5" stroke-linecap="round"></path>
    <path d="M3 12H21" stroke="#292D32" stroke-width="1.5" stroke-linecap="round"></path>
    <path d="M3 17H21" stroke="#292D32" stroke-width="1.5" stroke-linecap="round"></path>
  </symbol>
  <symbol version="1.1" xmlns="http://www.w3.org/2000/svg" xmlns:xlink="http://www.w3.org/1999/xlink" x="0px" y="0px" enable-background="new 0 0 1000 1000" xml:space="preserve" viewBox="0 0 1000 1000" id="quotes">
    <metadata>Svg Vector Icons : http://www.onlinewebfonts.com/icon</metadata>
    <g>
      <path d="M403.1,118.8v56c-79,28.7-141.3,74.1-186.1,136.4c-44.8,61.6-67.2,125.9-67.2,193.1c0,14.7,2.1,25.2,7,32.2c2.8,4.9,6.3,7,10.5,7c3.5,0,9.8-2.8,16.8-7.7c24.5-17.5,55.3-25.9,92.3-25.9c43.4,0,81.8,17.5,114.7,53.2c33.6,35,50.4,76.9,50.4,125.9c0,51.1-18.9,95.8-57.4,134.3c-38.5,38.5-84.6,58.1-139.2,58.1c-63.7,0-118.9-25.9-165.1-78.3C33.1,749,10,678.4,10,590.2c0-102.8,31.5-194.5,94.4-275.6C167.4,233.5,266.7,168.4,403.1,118.8z M950.8,118.8v56c-79,28.7-140.6,74.1-185.4,136.4c-44.8,61.6-67.2,125.9-67.2,193.1c0,14.7,2.1,25.2,7,32.2c2.8,4.9,6.3,7,10.5,7c3.5,0,9.8-2.8,16.8-7.7c24.5-17.5,55.3-25.9,92.3-25.9c43.4,0,81.8,17.5,114.7,53.2c33.6,35,50.4,76.9,50.4,125.9c0,51.1-18.9,95.8-57.4,134.3s-84.6,58.1-139.2,58.1c-63.7,0-118.9-25.9-165.1-78.3c-46.2-52.5-69.2-122.4-69.2-210.5c0-102.8,31.5-194.5,94.4-275.6C715.1,233.5,814.4,168.4,950.8,118.8z"></path>
    </g>
  </symbol>
  <symbol version="1.1" id="search" sodipodiDocname="search.svg" inkscapeVersion="1.2.2 (1:1.2.2+202212051550+b0a8486541)" xmlnsInkscape="http://www.inkscape.org/namespaces/inkscape" xmlnsSodipodi="http://sodipodi.sourceforge.net/DTD/sodipodi-0.dtd" xmlns="http://www.w3.org/2000/svg" xmlnsSvg="http://www.w3.org/2000/svg" viewBox="0 0 600 600">
    <defs id="defs9728"></defs>
    <sodipodi:namedview id="namedview9726" pagecolor="#ffffff" bordercolor="#666666" borderopacity="1.0" inkscapeShowpageshadow="2" inkscapePageopacity="0.0" inkscapePagecheckerboard="0" inkscapeDeskcolor="#d1d1d1" showgrid="true" inkscapeZoom="0.84118632" inkscapeCx="29.125533" inkscapeCy="385.76471" inkscapeWindowWidth="1920" inkscapeWindowHeight="1009" inkscapeWindowX="0" inkscapeWindowY="1080" inkscapeWindowMaximized="1" inkscapeCurrentLayer="g10449" showguides="true">
      <inkscape:grid type="xygrid" id="grid9972" originx="0" originy="0"></inkscape:grid>
      <sodipodi:guide position="-260,300" orientation="0,-1" id="guide383" inkscapeLocked="false"></sodipodi:guide>
      <sodipodi:guide position="300,520" orientation="1,0" id="guide385" inkscapeLocked="false"></sodipodi:guide>
      <sodipodi:guide position="240,520" orientation="0,-1" id="guide939" inkscapeLocked="false"></sodipodi:guide>
      <sodipodi:guide position="220,80" orientation="0,-1" id="guide941" inkscapeLocked="false"></sodipodi:guide>
    </sodipodi:namedview>
    <g id="g10449" transform="matrix(0.95173205,0,0,0.95115787,13.901174,12.168794)">
      <path d="m 206.04492,-12.792969 c -121.380675,0 -220.650389,99.36284 -220.650389,220.783199 0,121.42037 99.269714,220.78321 220.650389,220.78321 121.38068,0 220.65039,-99.36284 220.65039,-220.78321 0,-121.420359 -99.26971,-220.783199 -220.65039,-220.783199 z m 0,84.082031 c 75.90523,10e-7 136.56641,60.688518 136.56641,136.701168 0,76.01266 -60.66118,136.70118 -136.56641,136.70118 -75.90522,0 -136.568357,-60.68852 -136.568358,-136.70118 10e-7,-76.01265 60.663138,-136.701168 136.568358,-136.701168 z" id="path397"></path>
      <g id="path10026" inkscapeTransformCenterX="-0.59233046" inkscapeTransformCenterY="-20.347403" transform="matrix(1.3807551,0,0,1.2700888,273.60014,263.99768)"></g>
      <g id="g11314" transform="matrix(1.5092301,0,0,1.3955555,36.774048,-9.4503933)"></g>
      <path d="m 332.15625,292.14648 a 42.041302,42.041302 0 0 0 -29.73242,12.30469 42.041302,42.041302 0 0 0 -0.0176,59.45508 l 241.63867,241.78711 a 42.041302,42.041302 0 0 0 59.45508,0.0176 42.041302,42.041302 0 0 0 0.0195,-59.45508 L 361.87891,304.4707 a 42.041302,42.041302 0 0 0 -29.72266,-12.32422 z" id="path453"></path>
      <path d="m 300.47656,-223.75195 a 10.51035,10.51035 0 0 0 -10.51172,10.50976 c 0,27.82165 -12.93301,54.03401 -35.0039,70.94922 -22.07089,16.91522 -50.72689,22.58021 -77.56641,15.33399 a 10.51035,10.51035 0 0 0 -12.88672,7.40625 10.51035,10.51035 0 0 0 7.40821,12.88671 c 33.14139,8.947634 68.5821,1.9411 95.83203,-18.94336 27.24993,-20.88445 43.23828,-53.29099 43.23828,-87.63281 a 10.51035,10.51035 0 0 0 -10.50977,-10.50976 z" id="path1009" transform="scale(1,-1)"></path>
    </g>
  </symbol>
  <symbol fill="none" xmlns="http://www.w3.org/2000/svg" viewBox="0 0 24 24" id="setting">
    <path d="M12 15C13.6569 15 15 13.6569 15 12C15 10.3431 13.6569 9 12 9C10.3431 9 9 10.3431 9 12C9 13.6569 10.3431 15 12 15Z" stroke="#292D32" stroke-width="1.5" stroke-miterlimit="10" stroke-linecap="round" stroke-linejoin="round"></path>
    <path d="M2 12.8799V11.1199C2 10.0799 2.85 9.21994 3.9 9.21994C5.71 9.21994 6.45 7.93994 5.54 6.36994C5.02 5.46994 5.33 4.29994 6.24 3.77994L7.97 2.78994C8.76 2.31994 9.78 2.59994 10.25 3.38994L10.36 3.57994C11.26 5.14994 12.74 5.14994 13.65 3.57994L13.76 3.38994C14.23 2.59994 15.25 2.31994 16.04 2.78994L17.77 3.77994C18.68 4.29994 18.99 5.46994 18.47 6.36994C17.56 7.93994 18.3 9.21994 20.11 9.21994C21.15 9.21994 22.01 10.0699 22.01 11.1199V12.8799C22.01 13.9199 21.16 14.7799 20.11 14.7799C18.3 14.7799 17.56 16.0599 18.47 17.6299C18.99 18.5399 18.68 19.6999 17.77 20.2199L16.04 21.2099C15.25 21.6799 14.23 21.3999 13.76 20.6099L13.65 20.4199C12.75 18.8499 11.27 18.8499 10.36 20.4199L10.25 20.6099C9.78 21.3999 8.76 21.6799 7.97 21.2099L6.24 20.2199C5.33 19.6999 5.02 18.5299 5.54 17.6299C6.45 16.0599 5.71 14.7799 3.9 14.7799C2.85 14.7799 2 13.9199 2 12.8799Z" stroke="#292D32" stroke-width="1.5" stroke-miterlimit="10" stroke-linecap="round" stroke-linejoin="round"></path>
  </symbol>
  <symbol fill="#000000" xmlns="http://www.w3.org/2000/svg" viewBox="0 0 24 24" id="snap">
    <path d="M3,9A1,1,0,0,0,4,8V5A1,1,0,0,1,5,4H8A1,1,0,0,0,8,2H5A3,3,0,0,0,2,5V8A1,1,0,0,0,3,9ZM8,20H5a1,1,0,0,1-1-1V16a1,1,0,0,0-2,0v3a3,3,0,0,0,3,3H8a1,1,0,0,0,0-2ZM12,8a4,4,0,1,0,4,4A4,4,0,0,0,12,8Zm0,6a2,2,0,1,1,2-2A2,2,0,0,1,12,14ZM19,2H16a1,1,0,0,0,0,2h3a1,1,0,0,1,1,1V8a1,1,0,0,0,2,0V5A3,3,0,0,0,19,2Zm2,13a1,1,0,0,0-1,1v3a1,1,0,0,1-1,1H16a1,1,0,0,0,0,2h3a3,3,0,0,0,3-3V16A1,1,0,0,0,21,15Z"></path>
  </symbol>
  <symbol id="tick" xmlns="http://www.w3.org/2000/svg" viewBox="0 0 512 457.57">
    <defs></defs>
    <path d="M0,220.57c100.43-1.33,121-5.2,191.79,81.5,54.29-90,114.62-167.9,179.92-235.86C436-.72,436.5-.89,512,.24,383.54,143,278.71,295.74,194.87,457.57,150,361.45,87.33,280.53,0,220.57Z"></path>
  </symbol>
  <symbol xmlns="http://www.w3.org/2000/svg" viewBox="0 0 512 512" id="wordpress-simple">
    <path d="M256 8C119.3 8 8 119.2 8 256c0 136.7 111.3 248 248 248s248-111.3 248-248C504 119.2 392.7 8 256 8zM33 256c0-32.3 6.9-63 19.3-90.7l106.4 291.4C84.3 420.5 33 344.2 33 256zm223 223c-21.9 0-43-3.2-63-9.1l66.9-194.4 68.5 187.8c.5 1.1 1 2.1 1.6 3.1-23.1 8.1-48 12.6-74 12.6zm30.7-327.5c13.4-.7 25.5-2.1 25.5-2.1 12-1.4 10.6-19.1-1.4-18.4 0 0-36.1 2.8-59.4 2.8-21.9 0-58.7-2.8-58.7-2.8-12-.7-13.4 17.7-1.4 18.4 0 0 11.4 1.4 23.4 2.1l34.7 95.2L200.6 393l-81.2-241.5c13.4-.7 25.5-2.1 25.5-2.1 12-1.4 10.6-19.1-1.4-18.4 0 0-36.1 2.8-59.4 2.8-4.2 0-9.1-.1-14.4-.3C109.6 73 178.1 33 256 33c58 0 110.9 22.2 150.6 58.5-1-.1-1.9-.2-2.9-.2-21.9 0-37.4 19.1-37.4 39.6 0 18.4 10.6 33.9 21.9 52.3 8.5 14.8 18.4 33.9 18.4 61.5 0 19.1-7.3 41.2-17 72.1l-22.2 74.3-80.7-239.6zm81.4 297.2l68.1-196.9c12.7-31.8 17-57.2 17-79.9 0-8.2-.5-15.8-1.5-22.9 17.4 31.8 27.3 68.2 27.3 107 0 82.3-44.6 154.1-110.9 192.7z"></path>
  </symbol>
  <symbol fill="none" xmlns="http://www.w3.org/2000/svg" viewBox="0 0 24 24" id="chevron">
    <path d="M21 12C21 16.9706 16.9706 21 12 21C7.02944 21 3 16.9706 3 12C3 7.02944 7.02944 3 12 3C16.9706 3 21 7.02944 21 12Z" stroke="#323232" stroke-width="2" stroke-linejoin="round"></path>
    <path d="M11 15L13.7158 12.2842V12.2842C13.8728 12.1272 13.8728 11.8728 13.7158 11.7158V11.7158L11 9" stroke="#323232" stroke-width="2" stroke-linecap="round" stroke-linejoin="round"></path>
  </symbol>
  <symbol xmlns="http://www.w3.org/2000/svg" viewBox="0 0 512 512" id="clock">
    <path d="M464 256A208 208 0 1 1 48 256a208 208 0 1 1 416 0zM0 256a256 256 0 1 0 512 0A256 256 0 1 0 0 256zM232 120V256c0 8 4 15.5 10.7 20l96 64c11 7.4 25.9 4.4 33.3-6.7s4.4-25.9-6.7-33.3L280 243.2V120c0-13.3-10.7-24-24-24s-24 10.7-24 24z"></path>
  </symbol>
  <symbol xmlns="http://www.w3.org/2000/svg" viewBox="0 0 640 512" id="computer">
    <path d="M384 96V320H64L64 96H384zM64 32C28.7 32 0 60.7 0 96V320c0 35.3 28.7 64 64 64H181.3l-10.7 32H96c-17.7 0-32 14.3-32 32s14.3 32 32 32H352c17.7 0 32-14.3 32-32s-14.3-32-32-32H277.3l-10.7-32H384c35.3 0 64-28.7 64-64V96c0-35.3-28.7-64-64-64H64zm464 0c-26.5 0-48 21.5-48 48V432c0 26.5 21.5 48 48 48h64c26.5 0 48-21.5 48-48V80c0-26.5-21.5-48-48-48H528zm16 64h32c8.8 0 16 7.2 16 16s-7.2 16-16 16H544c-8.8 0-16-7.2-16-16s7.2-16 16-16zm-16 80c0-8.8 7.2-16 16-16h32c8.8 0 16 7.2 16 16s-7.2 16-16 16H544c-8.8 0-16-7.2-16-16zm32 160a32 32 0 1 1 0 64 32 32 0 1 1 0-64z"></path>
  </symbol>
  <symbol fill="#000000" version="1.1" xmlns="http://www.w3.org/2000/svg" viewBox="-4 0 32 32" id="easy">
    <title>clear</title>
    <path d="M13.688 9.219v-3.969c0-0.719-0.531-1.25-1.219-1.25h-0.938c-0.688 0-1.219 0.531-1.219 1.25v3.969c0 0.688 0.531 1.25 1.219 1.25h0.938c0.688 0 1.219-0.563 1.219-1.25zM8.406 9.969l-2.813-2.781c-0.469-0.469-1.281-0.469-1.75 0l-0.656 0.656c-0.469 0.469-0.469 1.281 0 1.75l2.781 2.813c0.469 0.469 1.313 0.469 1.781 0l0.656-0.656c0.469-0.469 0.469-1.313 0-1.781zM18.031 12.406l2.781-2.813c0.469-0.469 0.469-1.281 0-1.75l-0.656-0.656c-0.469-0.469-1.281-0.469-1.75 0l-2.813 2.781c-0.469 0.469-0.469 1.313 0 1.781l0.656 0.656c0.469 0.469 1.313 0.469 1.781 0zM1.25 17.688h3.969c0.688 0 1.25-0.531 1.25-1.219v-0.969c0-0.688-0.563-1.188-1.25-1.188h-3.969c-0.719 0-1.25 0.5-1.25 1.188v0.969c0 0.688 0.531 1.219 1.25 1.219zM18.781 17.688h3.969c0.719 0 1.25-0.531 1.25-1.219v-0.969c0-0.688-0.531-1.188-1.25-1.188h-3.969c-0.688 0-1.25 0.5-1.25 1.188v0.969c0 0.688 0.563 1.219 1.25 1.219zM5.594 24.781l2.813-2.781c0.469-0.469 0.469-1.281 0-1.75l-0.656-0.688c-0.469-0.469-1.313-0.469-1.781 0l-2.781 2.844c-0.469 0.469-0.469 1.281 0 1.75l0.656 0.625c0.469 0.469 1.281 0.469 1.75 0zM20.813 22.406l-2.781-2.844c-0.469-0.469-1.313-0.469-1.781 0l-0.656 0.688c-0.469 0.469-0.469 1.281 0 1.75l2.813 2.781c0.469 0.469 1.281 0.469 1.75 0l0.656-0.625c0.469-0.469 0.469-1.281 0-1.75zM13.688 26.75v-3.969c0-0.688-0.531-1.25-1.219-1.25h-0.938c-0.688 0-1.219 0.563-1.219 1.25v3.969c0 0.719 0.531 1.25 1.219 1.25h0.938c0.688 0 1.219-0.531 1.219-1.25z"></path>
  </symbol>
  <symbol id="growth" version="1.1" xmlns="http://www.w3.org/2000/svg" xmlnsCc="http://creativecommons.org/ns#" xmlnsDc="http://purl.org/dc/elements/1.1/" xmlnsInkscape="http://www.inkscape.org/namespaces/inkscape" xmlnsRdf="http://www.w3.org/1999/02/22-rdf-syntax-ns#" xmlnsSodipodi="http://sodipodi.sourceforge.net/DTD/sodipodi-0.dtd" xmlnsSvg="http://www.w3.org/2000/svg" viewBox="0 0 6.3500002 6.3500002">
    <defs id="defs1970"></defs>
    <g id="layer1">
      <path d="m 0.26485,5.8204456 a 0.2645835,0.2645835 0 0 0 -0.26563,0.26563 0.2645835,0.2645835 0 0 0 0.26563,0.26367 h 5.82031 a 0.2645835,0.2645835 0 0 0 0.26562,-0.26367 0.2645835,0.2645835 0 0 0 -0.26562,-0.26563 z" id="path726"></path>
      <path d="m 1.16328,3.9688856 c -0.34722,0 -0.63476,0.28754 -0.63476,0.63477 v 1.48242 a 0.26460996,0.26460996 0 0 0 0.26562,0.26367 h 1.0586 a 0.26460996,0.26460996 0 0 0 0.26367,-0.26367 v -1.48242 c 0,-0.34723 -0.28755,-0.63477 -0.63477,-0.63477 z" id="path728"></path>
      <path d="m 3.0168,3.0684956 c -0.34722,0 -0.63477,0.28753 -0.63477,0.63477 v 2.38281 a 0.26460996,0.26460996 0 0 0 0.26367,0.26367 h 1.0586 a 0.26460996,0.26460996 0 0 0 0.26367,-0.26367 v -2.38281 c 0,-0.34724 -0.28755,-0.63477 -0.63477,-0.63477 z" id="path730"></path>
      <path d="m 4.86836,2.2755256 c -0.34722,0 -0.63477,0.28754 -0.63477,0.63477 v 3.17578 a 0.26460996,0.26460996 0 0 0 0.26368,0.26367 h 1.05859 a 0.26460996,0.26460996 0 0 0 0.26563,-0.26367 v -3.17578 c 0,-0.34723 -0.2895,-0.63477 -0.63672,-0.63477 z" id="path732"></path>
      <path d="M 4.6205208,2.5237e-4 A 0.2645835,0.2645835 0 0 0 4.3564534,0.26380219 0.2645835,0.2645835 0 0 0 4.6205208,0.52941905 H 4.8938883 C 3.3974791,1.8159538 1.8306324,2.6151331 0.2161369,2.9142865 A 0.2645835,0.2645835 0 0 0 0.0052984,3.2227949 0.2645835,0.2645835 0 0 0 0.3117388,3.4357016 C 2.050091,3.1136013 3.722697,2.2498105 5.2923138,0.88753671 V 1.1991456 A 0.2645835,0.2645835 0 0 0 5.5558626,1.4647625 0.2645835,0.2645835 0 0 0 5.8214805,1.1991456 V 0.41986501 C 5.8215308,0.19150501 5.62816,2.0237e-4 5.3998008,2.5237e-4 Z" id="path734"></path>
    </g>
  </symbol>
</svg>